<svg xmlns="http://www.w3.org/2000/svg" viewBox="0 0 62.39 68.23"><defs><style>.cls-1,.cls-2{fill:none;stroke:#335fab;stroke-width:1.9px;}.cls-2{stroke-dasharray:1.9;}.cls-3{fill:#335fab;}.cls-3,.cls-4{stroke:#fff;}.cls-4{fill:#231f20;stroke-width:1.48px;}</style></defs><g id="Layer_2" data-name="Layer 2"><g id="Layer_8" data-name="Layer 8"><path class="cls-1" d="M30.77,1C15.09,1,2.39,13.4,2.39,28.78a27.32,27.32,0,0,0,6.75,18L2.53,59.07l12-7.47a28.57,28.57,0,0,0,16.21,5c15.67,0,28.38-12.47,28.38-27.83S46.44,1,30.77,1Z"/><path class="cls-2" d="M30.65,5.88A23.23,23.23,0,0,1,53.89,26.25"/><polyline class="cls-1" points="33.42 42.68 33.42 26.19 21.76 26.19"/><polyline class="cls-1" points="26.64 26.19 26.64 42.68 38.31 42.68"/><path class="cls-1" d="M34,16.62A3.94,3.94,0,1,1,30,12.76,3.9,3.9,0,0,1,34,16.62Z"/><circle class="cls-3" cx="48.19" cy="54.02" r="13.71"/><path class="cls-4" d="M49.26,49.35v4.18h4V54.6h-4v4.22H48.12V54.6h-4V53.53h4V49.35Z"/></g></g></svg>