<svg xmlns="http://www.w3.org/2000/svg" viewBox="0 0 61.91 67"><defs><style>.cls-1{fill:none;stroke:#177fad;stroke-linecap:round;stroke-linejoin:round;stroke-width:1.5px;}</style></defs><g id="Layer_2" data-name="Layer 2"><g id="Layer_8" data-name="Layer 8"><path class="cls-1" d="M50.23,38,48.17,34.9a18.76,18.76,0,0,0,2.17-5.17l5.79-1.16v-7l-5.82-1.16a18.61,18.61,0,0,0-2.13-5.18l3.28-4.93L46.55,5.42,41.61,8.71a19.22,19.22,0,0,0-5.18-2.15L35.27.75h-7L27.15,6.57A19.2,19.2,0,0,0,22,8.71L17,5.42l-4.92,4.92,3.3,4.94a18.74,18.74,0,0,0-2.16,5.17L7.45,21.61v7l5.82,1.16a19.13,19.13,0,0,0,2.14,5.19l-3.29,4.92,1.05,1"/><circle class="cls-1" cx="32.25" cy="24.86" r="12.43"/><polyline class="cls-1" points="25.65 24.71 31.25 30.31 38.26 19.11"/><path class="cls-1" d="M20.1,59.34A3.28,3.28,0,0,1,22.86,58H43.2c1.54,0,10-8.47,11.06-9.68a73.34,73.34,0,0,0,6.9-11.05c-.8-1.08-3-2-5.52-1.38s-3.88,2.32-5.53,5.52l-6.34,3.29"/><path class="cls-1" d="M28,49.67H40.44c5.52,0,5.52-6.91,0-6.91h-8.3C31,42.76,28.83,40,27,40H20.1c-1.87,0-4.19,1.52-5.53,2.77-2.07,2.07-5.72,5.52-5.72,5.52"/><rect class="cls-1" x="7.21" y="45.13" width="7.82" height="21.5" transform="translate(-36.26 24.23) rotate(-45)"/></g></g></svg>