<svg xmlns="http://www.w3.org/2000/svg" viewBox="0 0 68.6 60.46"><defs><style>.cls-1{fill:#258541;}.cls-2{fill:none;stroke:#258541;stroke-linecap:round;stroke-linejoin:round;stroke-width:1.5px;}</style></defs><g id="Layer_2" data-name="Layer 2"><g id="Layer_8" data-name="Layer 8"><path class="cls-1" d="M49.26,21.94l-.07-1a8.42,8.42,0,0,1,2.27-6.34c1.65-1.94,2.56-3.37,2.56-5,0-1.87-1.17-3.12-3.48-3.15a6.56,6.56,0,0,0-3.7,1.13L46,5.3A9.69,9.69,0,0,1,51.2,3.84c4.22,0,6.12,2.6,6.12,5.38,0,2.5-1.39,4.29-3.15,6.38A7.26,7.26,0,0,0,52.08,21l0,1Zm-.8,5.13a2.18,2.18,0,1,1,4.36,0,2.18,2.18,0,1,1-4.36,0Z"/><path class="cls-2" d="M63.63.75H36.84a4.05,4.05,0,0,0-4.23,3.84v23a4.05,4.05,0,0,0,4.23,3.84H49.53l7.4,7.67a1.43,1.43,0,0,0,2.47-.84V31.44h4.23a4,4,0,0,0,4.22-3.84v-23A4,4,0,0,0,63.63.75Z"/><path class="cls-2" d="M22.94,37.52a5.88,5.88,0,0,0,6-6.05v-3a5.88,5.88,0,0,0-6-6.05,5.88,5.88,0,0,0-6.05,6.05v3A5.88,5.88,0,0,0,22.94,37.52Z"/><path class="cls-2" d="M35,52.65v-5c0-4.52-8-7.06-12.1-7.06s-12.1,2.54-12.1,7.06v5"/><path class="cls-2" d="M44.51,32.31a22.17,22.17,0,1,1-12-14.83"/></g></g></svg>