<svg xmlns="http://www.w3.org/2000/svg" viewBox="0 0 63.23 65.87"><defs><style>.cls-1{fill:#258541;stroke:#fff;}.cls-1,.cls-3{stroke-linecap:round;stroke-linejoin:round;stroke-width:1.59px;}.cls-2{fill:#fff;}.cls-3{fill:none;stroke:#258541;}</style></defs><g id="Layer_2" data-name="Layer 2"><g id="Layer_8" data-name="Layer 8"><circle class="cls-1" cx="44.4" cy="47.04" r="18.03"/><path class="cls-2" d="M43,52l-.07-1a8.32,8.32,0,0,1,2.25-6.27c1.63-1.93,2.54-3.34,2.54-5,0-1.85-1.16-3.08-3.45-3.12a6.43,6.43,0,0,0-3.66,1.13l-.87-2.29A9.49,9.49,0,0,1,44.94,34C49.11,34,51,36.6,51,39.35c0,2.47-1.38,4.25-3.12,6.32A7.15,7.15,0,0,0,45.81,51l0,1ZM42.21,57a2.15,2.15,0,0,1,2.18-2.29A2.27,2.27,0,1,1,42.21,57Z"/><path class="cls-3" d="M24.36,28.52A10.78,10.78,0,0,0,35.45,17.43V11.88A10.78,10.78,0,0,0,24.36.79,10.78,10.78,0,0,0,13.27,11.88v5.55A10.78,10.78,0,0,0,24.36,28.52Z"/><path class="cls-3" d="M32.67,33.73a39.07,39.07,0,0,0-8.31-1c-7.76,0-23.57,4-23.57,12.47V56.24"/></g></g></svg>