<svg xmlns="http://www.w3.org/2000/svg" viewBox="0 0 64.8 64.8"><defs><style>.cls-1{fill:#0d2f4f;}.cls-2{fill:none;stroke:#fff;stroke-linecap:round;stroke-linejoin:round;stroke-width:1.21px;}</style></defs><g id="Layer_2" data-name="Layer 2"><g id="Layer_2-2" data-name="Layer 2"><circle class="cls-1" cx="32.4" cy="32.4" r="32.4"/><path class="cls-2" d="M37.53,45.52a41,41,0,0,1-7.71,5.1,4.88,4.88,0,0,0-1.72,1.44h0a5,5,0,0,1-5,1.87h0a5,5,0,0,1-3.93-4.7,13.23,13.23,0,0,1,.35-3.9"/><path class="cls-2" d="M22.41,18.29s3.35-10.76,12.7-9.64S52.84,20.23,47.26,32.94a31.61,31.61,0,0,1-2.42,4.46"/><path class="cls-2" d="M23.39,41.13c-.61-3,.12-4.28,1-4.84a5.33,5.33,0,0,0,2.49-3.42l0-.18a5,5,0,0,0-.81-3.77,5,5,0,0,1-.66-1.44,1.85,1.85,0,0,1,1.93-2.31,6.62,6.62,0,0,0,2.23-.25,1.43,1.43,0,0,0,1-1.37h0a1.44,1.44,0,0,0-.9-1.33c-1.11-.46-2.85-1.49-2.83-3.52,0,0,3.85-8.47,10.46-4.47S48.7,28.47,35.58,43.17"/><path class="cls-2" d="M30.62,19.75S31.91,20,33,22a2.05,2.05,0,0,0,1.76,1,3.08,3.08,0,0,1,1.68.51c1.32.91,3.63,7.75-4.33,12.78"/><path class="cls-2" d="M26.11,39.43s2.65,1.21,1.39,3.74"/><path class="cls-2" d="M53.07,40.27A8.95,8.95,0,0,0,37.8,46.6a8.94,8.94,0,1,0,15.27-6.33Z"/><line class="cls-2" x1="40.42" y1="52.92" x2="53.06" y2="40.28"/></g></g></svg>