<svg xmlns="http://www.w3.org/2000/svg" viewBox="0 0 61.69 61.29"><defs><style>.cls-1,.cls-2{fill:none;stroke:#0c2337;stroke-width:2px;}.cls-1{stroke-linecap:round;stroke-linejoin:round;}.cls-2{stroke-miterlimit:10;}.cls-3{fill:#0c2337;}</style></defs><g id="Layer_2" data-name="Layer 2"><g id="Layer_8" data-name="Layer 8"><path class="cls-1" d="M27.4,44.36a13.95,13.95,0,0,1,0-27.73V5.84a5.74,5.74,0,0,1,1-3.24H24.91L23.58,9.25a21.83,21.83,0,0,0-5.92,2.48L12,8,6.35,13.59l3.78,5.66a21.74,21.74,0,0,0-2.49,5.93L1,26.51v8l6.67,1.34a22,22,0,0,0,2.45,5.94L6.35,47.41,12,53l5.66-3.77a22,22,0,0,0,5.93,2.47l1.33,6.65H28.2a5.73,5.73,0,0,1-.8-2.94Z"/><path class="cls-2" d="M15,30.5A14,14,0,0,0,27.4,44.36V16.63A14,14,0,0,0,15,30.5Z"/><path class="cls-3" d="M55.85,0H33.24a5.82,5.82,0,0,0-4.85,2.6h4.49l1.33,6.65a21.78,21.78,0,0,1,5.94,2.48L45.81,8l5.63,5.64-3.76,5.64a21.75,21.75,0,0,1,2.44,5.95l6.68,1.33v8l-6.66,1.33a21.87,21.87,0,0,1-2.47,5.93l3.77,5.67L45.81,53l-5.65-3.76a22,22,0,0,1-5.94,2.44l-1.34,6.67H28.2a5.86,5.86,0,0,0,5,2.9H55.85a5.86,5.86,0,0,0,5.84-5.84V5.84A5.86,5.86,0,0,0,55.85,0Z"/><path class="cls-1" d="M34.22,51.72a22,22,0,0,0,5.94-2.44L45.81,53l5.63-5.63-3.77-5.67a21.87,21.87,0,0,0,2.47-5.93l6.66-1.33v-8l-6.68-1.33a21.75,21.75,0,0,0-2.44-5.95l3.76-5.64L45.81,8l-5.66,3.78a21.78,21.78,0,0,0-5.94-2.48L32.88,2.6H28.39a5.74,5.74,0,0,0-1,3.24V16.63a14.76,14.76,0,0,1,1.5-.08,14,14,0,0,1,0,27.9,14.74,14.74,0,0,1-1.5-.09V55.45a5.73,5.73,0,0,0,.8,2.94h4.68Z"/><path class="cls-2" d="M28.9,44.45a14,14,0,0,0,0-27.9,14.76,14.76,0,0,0-1.5.08V44.36A14.74,14.74,0,0,0,28.9,44.45Z"/></g></g></svg>