<svg xmlns="http://www.w3.org/2000/svg" viewBox="0 0 60.74 50.16"><defs><style>.cls-1,.cls-2{fill:none;}.cls-1{stroke:#333;stroke-linejoin:round;stroke-width:1.61px;}.cls-2{stroke:#0c2337;stroke-miterlimit:10;stroke-width:1.55px;}.cls-3{fill:#0c2337;}</style></defs><g id="Layer_2" data-name="Layer 2"><g id="Layer_8" data-name="Layer 8"><rect class="cls-1" x="0.81" y="0.81" width="59.13" height="48.54" rx="2.59"/><line class="cls-1" x1="0.81" y1="7.74" x2="59.93" y2="7.74"/><line class="cls-1" x1="4.5" y1="4.27" x2="7.81" y2="4.27"/><line class="cls-1" x1="10.18" y1="4.27" x2="13.5" y2="4.27"/><path class="cls-2" d="M26.68,13.48,12.85,41.31a2.62,2.62,0,0,0,2.34,3.79H44.28a2.63,2.63,0,0,0,2.3-3.88L31.31,13.39A2.61,2.61,0,0,0,26.68,13.48Z"/><path class="cls-3" d="M27.67,41.17a2,2,0,0,1,2-2.07,2.07,2.07,0,0,1,0,4.13A2,2,0,0,1,27.67,41.17Zm.83-4.77-.46-16h3.2l-.47,16Z"/></g></g></svg>