<svg xmlns="http://www.w3.org/2000/svg" viewBox="0 0 64.8 64.8"><defs><style>.cls-1{fill:#0d2f4f;}.cls-2{fill:none;}.cls-2,.cls-3{stroke:#fff;stroke-miterlimit:10;stroke-width:1.2px;}.cls-3{fill:#fff;}</style></defs><g id="Layer_2" data-name="Layer 2"><g id="Layer_2-2" data-name="Layer 2"><circle class="cls-1" cx="32.4" cy="32.4" r="32.4"/><path class="cls-2" d="M10.63,42.23c.18.33.88.94,1.15,1.38a10.26,10.26,0,0,1,.28,3.18c-.06.5,0,2.26,1.48,2.64s6.3,0,6.76.22c.93.49,3.1,4.1,3.64,7.38H47c-1.49-2.09-4.87-6.89-4.77-11.65s1.38-7,2.59-8.83c3.87-5.87,5.16-10.27,4.27-15.22C47.7,13.58,42,7.81,32.19,7.81s-15.91,5.37-17.6,7.46a13.54,13.54,0,0,0-2.37,5.1c-.16.55-.27,1.81-.49,2.42s-1,2.52-.77,3,1.24,1.65,1.21,1.93a10.35,10.35,0,0,1-1.71,3.79C9.53,32.79,8,35,8.05,35.64a1.83,1.83,0,0,0,1.37,1.43c.6.11,1.59.66,1.43,1.37s-.94,1.65-.55,2l.39.43c.09.09.34.34.34.49s-.27.42-.37.5S10.58,42.14,10.63,42.23Z"/><path class="cls-3" d="M21.54,27a3.53,3.53,0,0,0,2.31,3,6.64,6.64,0,0,0,5.6.46,4.49,4.49,0,0,0,2.05,2.45c.16.59,2.11,4.59,2.24,4.8a.83.83,0,0,0,.89.29,2,2,0,0,0,.92-.27c.14-.12.26-.25.11-.66-.29-.83-.52-1.15-.43-1.67a5.68,5.68,0,0,1,.16-.73,11.28,11.28,0,0,0,2.81.59,13.73,13.73,0,0,0,3.59-1A3.51,3.51,0,0,0,43,31.26,2.84,2.84,0,0,0,44.23,31c.3-.21,1.24-.87,1.38-1a6.05,6.05,0,0,0,1-2.22,15.23,15.23,0,0,0-.13-4.55c-.21-.68-.55-1.37-.71-1.78s-.66-1.71-1.1-1.92A2.17,2.17,0,0,0,44.1,18c-.32-.41-1.33-1.24-1.53-1.51a19.76,19.76,0,0,0-2-2.51,2.92,2.92,0,0,0-2-.67c-.46-1.14-2.13-1.44-2.86-1.37a7.3,7.3,0,0,0-3.15-.59A1.51,1.51,0,0,0,31.5,11a1.19,1.19,0,0,0-.91.3,2.16,2.16,0,0,0-1.05-.16,2.49,2.49,0,0,0-1.05.48,1.4,1.4,0,0,0-1.29-.32,26.92,26.92,0,0,0-4.32,1,7.83,7.83,0,0,0-1.18.85,11.56,11.56,0,0,0-1.88.82c-.36.32-.71.89-.94,1.12s-1.09.48-1.39,1-1.23,2.47-1.3,2.67-.19.51-.14.62a1.76,1.76,0,0,1,0,.74,8.23,8.23,0,0,0-.07,1.48,3.1,3.1,0,0,0,1,1.8C17.1,25.36,18.45,26.27,21.54,27Z"/></g></g></svg>