<svg xmlns="http://www.w3.org/2000/svg" viewBox="0 0 66.38 55.58"><defs><style>.cls-1,.cls-3{fill:none;stroke:#335fab;}.cls-1{stroke-linecap:round;stroke-linejoin:round;stroke-width:1.5px;}.cls-2{fill:#335fab;}.cls-3{stroke-miterlimit:10;}</style></defs><g id="Layer_2" data-name="Layer 2"><g id="Layer_8" data-name="Layer 8"><path class="cls-1" d="M36,37.42v4.23a4.23,4.23,0,0,1-4.23,4.23H19.09l-7.41,8.46a1.41,1.41,0,0,1-2.47-.93V45.88H5A4.23,4.23,0,0,1,.75,41.65V16.26A4.23,4.23,0,0,1,5,12H27.55"/><path class="cls-1" d="M61.4.75H34.6A4.23,4.23,0,0,0,30.37,5V30.37A4.23,4.23,0,0,0,34.6,34.6H47.29l7.41,8.46a1.41,1.41,0,0,0,2.47-.93V34.6H61.4a4.23,4.23,0,0,0,4.23-4.23V5A4.23,4.23,0,0,0,61.4.75Z"/><path class="cls-2" d="M37.57,20a2.58,2.58,0,0,1,2.62-2.75A2.55,2.55,0,0,1,42.77,20a2.6,2.6,0,1,1-5.2,0Z"/><path class="cls-2" d="M46.61,20a2.58,2.58,0,0,1,2.62-2.75A2.55,2.55,0,0,1,51.81,20a2.6,2.6,0,1,1-5.2,0Z"/><path class="cls-2" d="M55.64,20a2.58,2.58,0,0,1,2.62-2.75A2.55,2.55,0,0,1,60.84,20a2.6,2.6,0,1,1-5.2,0Z"/><path class="cls-3" d="M4.44,30.49a2.58,2.58,0,0,1,2.62-2.75,2.55,2.55,0,0,1,2.58,2.75A2.56,2.56,0,0,1,7,33.25,2.58,2.58,0,0,1,4.44,30.49Z"/><path class="cls-3" d="M13.48,30.49a2.58,2.58,0,0,1,2.62-2.75,2.55,2.55,0,0,1,2.57,2.75,2.6,2.6,0,1,1-5.19,0Z"/><path class="cls-3" d="M22.51,30.49a2.58,2.58,0,0,1,2.62-2.75,2.55,2.55,0,0,1,2.58,2.75,2.6,2.6,0,1,1-5.2,0Z"/></g></g></svg>