<svg xmlns="http://www.w3.org/2000/svg" viewBox="0 0 64.22 67.06"><defs><style>.cls-1,.cls-2,.cls-3,.cls-4{fill:none;stroke:#0d2f4f;}.cls-1{stroke-linecap:round;}.cls-1,.cls-4{stroke-linejoin:round;}.cls-1,.cls-2{stroke-width:1.51px;}.cls-2,.cls-3{stroke-miterlimit:10;}.cls-4{stroke-width:1.67px;}</style></defs><g id="Layer_2" data-name="Layer 2"><g id="Layer_4" data-name="Layer 4"><polygon class="cls-1" points="46.98 63.25 37.68 66.31 26.63 32.66 28.59 23.23 35.93 29.61 46.98 63.25"/><line class="cls-2" x1="36.51" y1="62.73" x2="46.04" y2="59.59"/><line class="cls-1" x1="29.81" y1="33.63" x2="38.1" y2="58.87"/><line class="cls-1" x1="33.39" y1="32.46" x2="41.68" y2="57.69"/><path class="cls-2" d="M26.63,32.66a11.5,11.5,0,0,0,9.3-3"/><path class="cls-2" d="M27.81,27.21A2.87,2.87,0,0,0,31.54,26"/><rect class="cls-3" x="9.15" y="11.42" width="8.97" height="8.97"/><rect class="cls-3" x="19.94" y="14.46" width="6.78" height="6.78"/><rect class="cls-3" x="16.08" y="22.6" width="4.33" height="4.33"/><path class="cls-4" d="M30.75,50H3.51A2.69,2.69,0,0,1,.83,47.28V3.51A2.69,2.69,0,0,1,3.51.83h57.2a2.69,2.69,0,0,1,2.68,2.68V47.28A2.69,2.69,0,0,1,60.71,50H44.86"/><line class="cls-4" x1="0.83" y1="7.85" x2="63.39" y2="7.85"/><line class="cls-4" x1="4.74" y1="4.34" x2="8.25" y2="4.34"/><line class="cls-4" x1="10.75" y1="4.34" x2="14.26" y2="4.34"/></g></g></svg>