<svg xmlns="http://www.w3.org/2000/svg" viewBox="0 0 55.16 68.28"><defs><style>.cls-1,.cls-2,.cls-3,.cls-4,.cls-5{fill:none;stroke:#0c2337;}.cls-1,.cls-2,.cls-4{stroke-linejoin:round;}.cls-1,.cls-2,.cls-3{stroke-width:1.36px;}.cls-2,.cls-4{stroke-linecap:round;}.cls-3,.cls-5{stroke-miterlimit:10;}.cls-4,.cls-5{stroke-width:1.14px;}</style></defs><g id="Layer_2" data-name="Layer 2"><g id="Layer_8" data-name="Layer 8"><path class="cls-1" d="M32.91,42.93H3a2.32,2.32,0,0,1-2.31-2.3V3A2.32,2.32,0,0,1,3,.68H52.17A2.32,2.32,0,0,1,54.48,3V40.63a2.32,2.32,0,0,1-2.31,2.3h-8.8"/><line class="cls-1" x1="0.68" y1="6.72" x2="54.48" y2="6.72"/><line class="cls-1" x1="4.04" y1="3.7" x2="7.06" y2="3.7"/><line class="cls-1" x1="9.21" y1="3.7" x2="12.23" y2="3.7"/><polygon class="cls-2" points="50.9 64.58 43.13 67.6 32.22 39.47 33.47 31.35 39.99 36.45 50.9 64.58"/><line class="cls-3" x1="41.96" y1="64.6" x2="49.94" y2="61.51"/><line class="cls-2" x1="34.97" y1="40.15" x2="43.15" y2="61.25"/><line class="cls-2" x1="37.96" y1="38.99" x2="46.14" y2="60.09"/><path class="cls-3" d="M32.22,39.46a9.76,9.76,0,0,0,3.57-.41,9.94,9.94,0,0,0,4.2-2.6"/><path class="cls-3" d="M33,34.77a2.41,2.41,0,0,0,1.82,0,2.5,2.5,0,0,0,1.3-1.22"/><path class="cls-2" d="M47.84,21C46,22.84,38.73,31.16,27.75,31.24s-18.16-8.09-20-9.91c1.76-1.84,8.72-9.91,19.65-10.08C38.55,11.09,46.1,19.22,47.84,21Z"/><line class="cls-4" x1="29.11" y1="16.61" x2="25.97" y2="26.04"/><polyline class="cls-4" points="24.1 26.73 18.77 21.4 24.1 16.07"/><polyline class="cls-4" points="31.48 16.02 36.81 21.35 31.48 26.68"/><ellipse class="cls-5" cx="27.56" cy="21.29" rx="11.08" ry="9.54"/></g></g></svg>