<svg xmlns="http://www.w3.org/2000/svg" viewBox="0 0 56.91 68.01"><defs><style>.cls-1,.cls-2,.cls-3{fill:none;stroke:#0c2337;stroke-linejoin:round;}.cls-1{stroke-width:1.48px;}.cls-2,.cls-3{stroke-linecap:round;}.cls-2{stroke-width:1.66px;}.cls-3{stroke-width:1.12px;}</style></defs><g id="Layer_2" data-name="Layer 2"><g id="Layer_8" data-name="Layer 8"><path class="cls-1" d="M9.23,44.28H3.11A2.38,2.38,0,0,1,.74,41.9V3.11A2.38,2.38,0,0,1,3.11.74H53.8a2.38,2.38,0,0,1,2.38,2.37V41.9a2.39,2.39,0,0,1-2.38,2.38H50.64"/><line class="cls-1" x1="0.74" y1="6.96" x2="56.18" y2="6.96"/><line class="cls-1" x1="4.2" y1="3.85" x2="7.31" y2="3.85"/><line class="cls-1" x1="9.53" y1="3.85" x2="12.64" y2="3.85"/><polyline class="cls-2" points="37.12 14.17 10.13 14.17 10.13 24.74 10.13 38.69 10.13 67.18 49.37 67.18 49.37 38.69 49.37 26.28"/><polygon class="cls-2" points="40.9 22.54 47.69 22.54 40.9 15.83 40.9 22.54"/><line class="cls-2" x1="14.61" y1="20.79" x2="32.97" y2="20.79"/><line class="cls-2" x1="14.57" y1="33.84" x2="44.16" y2="33.84"/><line class="cls-2" x1="14.57" y1="39.72" x2="44.16" y2="39.72"/><line class="cls-2" x1="14.23" y1="26.46" x2="43.82" y2="26.46"/><line class="cls-3" x1="31.56" y1="48.49" x2="27.7" y2="60.07"/><polyline class="cls-3" points="25.41 60.91 18.86 54.37 25.41 47.83"/><polyline class="cls-3" points="34.47 47.77 41.01 54.31 34.47 60.85"/></g></g></svg>