<svg xmlns="http://www.w3.org/2000/svg" viewBox="0 0 65.98 70.85"><defs><style>.cls-1,.cls-2,.cls-3{fill:none;stroke:#177fad;stroke-linecap:round;stroke-linejoin:round;}.cls-1{stroke-width:1.5px;}.cls-2{stroke-width:1.55px;}</style></defs><g id="Layer_2" data-name="Layer 2"><g id="Layer_7" data-name="Layer 7"><polyline class="cls-1" points="35.41 52.47 31.99 41.25 34.45 32.47 41.28 38.65 44.59 48.1"/><line class="cls-1" x1="35.67" y1="42.07" x2="38.6" y2="51.72"/><line class="cls-1" x1="39.12" y1="41.7" x2="41.94" y2="50.1"/><path class="cls-1" d="M32.11,41.68a11.37,11.37,0,0,0,9.29-2.61"/><path class="cls-1" d="M33.51,36.36a2.81,2.81,0,0,0,3.72-1"/><rect class="cls-1" x="20.89" y="29.41" width="7.33" height="8.74"/><circle class="cls-2" cx="31.9" cy="35.58" r="18.61"/><rect class="cls-1" x="29.93" y="22.41" width="5.9" height="6.83"/><circle class="cls-1" cx="31.95" cy="5.9" r="5.15"/><circle class="cls-1" cx="5.9" cy="21.83" r="5.15"/><circle class="cls-1" cx="58.94" cy="21.27" r="5.15"/><circle class="cls-1" cx="6.73" cy="52.11" r="5.15"/><line class="cls-1" x1="15.11" y1="26.49" x2="10.83" y2="23.96"/><line class="cls-1" x1="31.95" y1="11.83" x2="31.95" y2="16.57"/><line class="cls-1" x1="11.56" y1="50.05" x2="16.76" y2="47.37"/><line class="cls-1" x1="48.16" y1="25.43" x2="53.78" y2="23.02"/><circle class="cls-1" cx="60.08" cy="48.57" r="5.15"/><line class="cls-1" x1="47.97" y1="44.81" x2="55.01" y2="47.27"/><circle class="cls-1" cx="34.62" cy="64.95" r="5.15"/><line class="cls-1" x1="34.19" y1="54.58" x2="34.27" y2="59.73"/><line class="cls-3" x1="27.13" y1="6.81" x2="9.25" y2="17.47"/><line class="cls-3" x1="37.1" y1="5.9" x2="55.52" y2="16.42"/><line class="cls-3" x1="3.99" y1="27.09" x2="3.99" y2="46.92"/><line class="cls-3" x1="58.94" y1="26.42" x2="58.94" y2="43.31"/><line class="cls-3" x1="9.85" y1="56.08" x2="29.68" y2="64.79"/><line class="cls-3" x1="57.17" y1="53.23" x2="40.05" y2="65.24"/></g></g></svg>