<svg xmlns="http://www.w3.org/2000/svg" viewBox="0 0 67.6 66.3"><defs><style>.cls-1,.cls-2,.cls-3{fill:none;stroke:#0d2f4f;stroke-width:1.5px;}.cls-1,.cls-3{stroke-linejoin:round;}.cls-2{stroke-miterlimit:10;}.cls-3{stroke-linecap:round;}.cls-4{fill:#0d2f4f;}</style></defs><g id="Layer_2" data-name="Layer 2"><g id="Layer_4" data-name="Layer 4"><path class="cls-1" d="M12.28,52.66H3.58A2.83,2.83,0,0,1,.75,49.83V3.58A2.83,2.83,0,0,1,3.58.75H64a2.84,2.84,0,0,1,2.83,2.83V49.83A2.84,2.84,0,0,1,64,52.66H55.74"/><line class="cls-1" x1="0.75" y1="8.17" x2="66.85" y2="8.17"/><line class="cls-1" x1="4.87" y1="4.46" x2="8.58" y2="4.46"/><line class="cls-1" x1="11.23" y1="4.46" x2="14.94" y2="4.46"/><polyline class="cls-2" points="32.04 41.14 34.45 43.55 38.67 38.12"/><circle class="cls-2" cx="34.88" cy="41.14" r="9.73"/><path class="cls-3" d="M54.34,43.92V38.36l-4.65-.93A15.32,15.32,0,0,0,48,33.28l2.63-3.93-3.93-3.94-4,2.64a15,15,0,0,0-4.14-1.73l-.93-4.64H32.11l-.93,4.64a15.24,15.24,0,0,0-4.13,1.73l-4-2.64-3.93,3.94,2.63,3.95a15.24,15.24,0,0,0-1.73,4.13l-4.63.93v5.56l4.65.93A15.08,15.08,0,0,0,21.79,49l-2.63,3.94,3.93,3.93L27,54.23A15.28,15.28,0,0,0,31.18,56l.93,4.64h5.55l.93-4.65a15.3,15.3,0,0,0,4.15-1.7l3.94,2.62,3.93-3.93L48,49a15.35,15.35,0,0,0,1.72-4.13Z"/><path class="cls-2" d="M56.41,48.33a22.93,22.93,0,0,1-44.25.6"/><polygon class="cls-4" points="11.29 42.63 16.29 50.91 12.35 49.38 9.06 52.05 11.29 42.63"/><path class="cls-2" d="M12,34.47a22.92,22.92,0,0,1,44.27-.72"/><polygon class="cls-4" points="57.12 40.05 52.12 31.77 56.06 33.3 59.34 30.64 57.12 40.05"/></g></g></svg>