<svg xmlns="http://www.w3.org/2000/svg" viewBox="0 0 47.88 47.88"><defs><style>.cls-1{fill:none;stroke:#335fab;stroke-linecap:round;stroke-linejoin:round;stroke-width:1.5px;}</style></defs><g id="Layer_2" data-name="Layer 2"><g id="Layer_2-2" data-name="Layer 2"><g id="express_delivery" data-name="express delivery"><path class="cls-1" d="M11.74,32.17l-5-5a.75.75,0,0,1,0-1.07l1.51-1.51"/><path class="cls-1" d="M21.57,11.22,31.82,1a.75.75,0,0,1,1.07,0L45.81,13.89a4.49,4.49,0,0,1,1.32,3.17v8.41a4.51,4.51,0,0,1-1.32,3.18L27.55,46.91a.77.77,0,0,1-1.07,0L14.74,35.16"/><line class="cls-1" x1="11.1" y1="21.69" x2="18.7" y2="14.09"/><path class="cls-1" d="M44.14,18.7l-2.47,2.46a.75.75,0,0,0,0,1.06l4.71,4.71"/><line class="cls-1" x1="10.47" y1="11.22" x2="11.97" y2="11.22"/><polyline class="cls-1" points="16.46 11.22 21.69 11.22 25.43 11.22"/><line class="cls-1" x1="5.24" y1="21.69" x2="28.43" y2="21.69"/><line class="cls-1" x1="22.44" y1="32.17" x2="7.48" y2="32.17"/><line class="cls-1" x1="2.99" y1="32.17" x2="0.75" y2="32.17"/></g></g></g></svg>