<svg xmlns="http://www.w3.org/2000/svg" viewBox="0 0 48.21 64.02"><defs><style>.cls-1{fill:#177fad;}.cls-2{fill:#fff;}.cls-3,.cls-4{fill:none;stroke:#177fad;}.cls-3{stroke-miterlimit:10;}.cls-4{stroke-linecap:round;stroke-linejoin:round;stroke-width:1.77px;}</style></defs><g id="Layer_2" data-name="Layer 2"><g id="Layer_8" data-name="Layer 8"><circle class="cls-1" cx="25.14" cy="36.55" r="15.62"/><path class="cls-2" d="M22.88,42.45l-.06-.78a6.89,6.89,0,0,1,1.86-5.19c1.35-1.59,2.1-2.76,2.1-4.11,0-1.53-1-2.55-2.85-2.58a5.33,5.33,0,0,0-3,.93l-.72-1.89a7.87,7.87,0,0,1,4.29-1.2c3.45,0,5,2.13,5,4.41,0,2-1.14,3.51-2.58,5.22a5.93,5.93,0,0,0-1.71,4.41l0,.78Zm-.66,4.2A1.77,1.77,0,0,1,24,44.76a1.88,1.88,0,1,1-1.8,1.89Z"/><polyline class="cls-3" points="28.14 0.5 0.5 0.5 0.5 56.98"/><polyline class="cls-4" points="34.26 6.59 5.47 6.59 5.47 17.88 5.47 32.75 5.47 63.14 47.33 63.14 47.33 32.75 47.33 19.52"/><polygon class="cls-4" points="38.29 15.53 45.53 15.53 38.29 8.37 38.29 15.53"/></g></g></svg>