<svg xmlns="http://www.w3.org/2000/svg" viewBox="0 0 56.9 53.74"><defs><style>.cls-1,.cls-3{fill:none;}.cls-1{stroke:#0c2337;}.cls-1,.cls-2,.cls-3{stroke-miterlimit:10;}.cls-1,.cls-2{stroke-width:2px;}.cls-2{fill:#0c2337;stroke:#fff;}.cls-3{stroke:#e3eded;}.cls-4{fill:#e3eded;}</style></defs><g id="Layer_2" data-name="Layer 2"><g id="Layer_8" data-name="Layer 8"><path class="cls-1" d="M23,23a5.83,5.83,0,0,0,6-6V14a5.83,5.83,0,0,0-6-6,5.83,5.83,0,0,0-6,6v3A5.83,5.83,0,0,0,23,23Z"/><path class="cls-1" d="M35,38V33c0-4.48-8-7-12-7s-12,2.52-12,7v5"/><circle class="cls-1" cx="23" cy="23" r="22"/><circle class="cls-2" cx="41.48" cy="38.32" r="14.42"/><path class="cls-3" d="M40.56,29.06,33.4,43.47a1.35,1.35,0,0,0,1.21,2H49.67a1.35,1.35,0,0,0,1.19-2L43,29A1.35,1.35,0,0,0,40.56,29.06Z"/><path class="cls-4" d="M41.07,43.4a1,1,0,0,1,1-1.07,1,1,0,0,1,1,1.07,1,1,0,0,1-1,1.07A1,1,0,0,1,41.07,43.4Zm.43-2.47-.24-8.28h1.66l-.24,8.28Z"/></g></g></svg>