<svg xmlns="http://www.w3.org/2000/svg" viewBox="0 0 56.72 68.75"><defs><style>.cls-1,.cls-2,.cls-3{fill:none;stroke:#0c2337;}.cls-1,.cls-3{stroke-linejoin:round;}.cls-1{stroke-width:1.47px;}.cls-2{stroke-miterlimit:10;}.cls-2,.cls-3{stroke-width:1.12px;}.cls-3{stroke-linecap:round;}.cls-4{fill:#0c2337;}</style></defs><g id="Layer_2" data-name="Layer 2"><g id="Layer_8" data-name="Layer 8"><path class="cls-1" d="M5.76,44.12H3.1A2.37,2.37,0,0,1,.74,41.75V3.1A2.36,2.36,0,0,1,3.1.74H53.61A2.37,2.37,0,0,1,56,3.1V41.75a2.38,2.38,0,0,1-2.37,2.37H51.8"/><line class="cls-1" x1="0.74" y1="6.93" x2="55.98" y2="6.93"/><line class="cls-1" x1="4.18" y1="3.84" x2="7.28" y2="3.84"/><line class="cls-1" x1="9.5" y1="3.84" x2="12.59" y2="3.84"/><circle class="cls-2" cx="29.26" cy="43.75" r="9.74"/><path class="cls-3" d="M48.73,46.54V41L44.08,40a15.46,15.46,0,0,0-1.71-4.15L45,32,41.06,28l-4,2.63A15.28,15.28,0,0,0,33,28.93L32,24.28H26.48l-.93,4.65a14.93,14.93,0,0,0-4.13,1.73l-4-2.64L13.53,32l2.63,4a14.89,14.89,0,0,0-1.74,4.14L9.79,41v5.57l4.66.93a15.37,15.37,0,0,0,1.7,4.14l-2.62,4,3.93,3.93,3.95-2.63a15.42,15.42,0,0,0,4.14,1.72l.93,4.65H32L33,58.57a15.08,15.08,0,0,0,4.14-1.71l3.94,2.63L45,55.56l-2.64-4a15.06,15.06,0,0,0,1.73-4.13Z"/><path class="cls-2" d="M50.8,51A22.94,22.94,0,0,1,6.13,50"/><polygon class="cls-4" points="5.64 45.25 9.15 51.55 6.25 50.3 3.73 52.2 5.64 45.25"/><path class="cls-2" d="M6.33,37.08A22.94,22.94,0,0,1,51,38"/><polygon class="cls-4" points="51.52 42.67 48.02 36.36 50.91 37.61 53.43 35.71 51.52 42.67"/><line class="cls-3" x1="30.12" y1="40.52" x2="27.54" y2="48.25"/><polyline class="cls-3" points="26.01 48.81 21.64 44.45 26.01 40.08"/><polyline class="cls-3" points="32.05 40.04 36.42 44.41 32.05 48.77"/></g></g></svg>