<svg xmlns="http://www.w3.org/2000/svg" viewBox="0 0 58.77 69.39"><defs><style>.cls-1,.cls-2{fill:none;stroke:#0d2f4f;stroke-width:1.49px;}.cls-1{stroke-miterlimit:10;}.cls-2{stroke-linecap:round;stroke-linejoin:round;}</style></defs><g id="Layer_2" data-name="Layer 2"><g id="Layer_4" data-name="Layer 4"><path class="cls-1" d="M31.78,7.65c10,1.17,16.23,6.74,18.11,9a16.67,16.67,0,0,1,2.94,6.35c.21.68.35,2.25.62,3s1.23,3.14,1,3.69-1.55,2-1.51,2.39A13,13,0,0,0,55,36.85c1.16,1.64,3.07,4.37,3,5.19a2.29,2.29,0,0,1-1.71,1.78c-.75.14-2,.82-1.78,1.71s1.16,2,.69,2.46l-.49.53c-.11.11-.43.43-.43.61s.34.53.47.62.1.37,0,.48c-.23.41-1.1,1.17-1.44,1.72a12.81,12.81,0,0,0-.34,4c.07.62,0,2.81-1.85,3.28s-7.83,0-8.4.28c-1.16.61-3.86,5.1-4.53,9.18H9.57c1.86-2.6,6.06-8.57,5.94-14.49s-1.72-8.72-3.22-11c-3-4.61-4.8-8.49-5.41-12.28"/><circle class="cls-1" cx="17.86" cy="17.86" r="8.55"/><path class="cls-2" d="M34.93,20.48l0-4.88-4.08-.86a13.41,13.41,0,0,0-1.46-3.66l2.34-3.43L28.37,4.16l-3.5,2.27a13.49,13.49,0,0,0-3.61-1.55L20.48.79,15.6.74l-.86,4.07A13.2,13.2,0,0,0,11.1,6.29L7.65,3.94,4.16,7.36l2.27,3.49a13.44,13.44,0,0,0-1.56,3.62l-4.08.77L.74,20.12,4.82,21a13.6,13.6,0,0,0,1.46,3.66L3.94,28.08l3.42,3.48,3.49-2.27a13.42,13.42,0,0,0,3.62,1.55l.77,4.09,4.88,0L21,30.9a13.28,13.28,0,0,0,3.66-1.46l3.44,2.34,3.48-3.41-2.27-3.5a13.49,13.49,0,0,0,1.55-3.61Z"/></g></g></svg>