<svg xmlns="http://www.w3.org/2000/svg" viewBox="0 0 64.8 64.8"><defs><style>.cls-1{fill:#0d2f4f;}.cls-2{fill:none;stroke:#fff;stroke-linecap:round;stroke-linejoin:round;stroke-width:1.62px;}</style></defs><g id="Layer_2" data-name="Layer 2"><g id="Layer_2-2" data-name="Layer 2"><circle class="cls-1" cx="32.4" cy="32.4" r="32.4"/><path class="cls-2" d="M21.77,34.05V17.23a3.69,3.69,0,0,1,3.69-3.69h0a3.69,3.69,0,0,1,3.68,3.69V32.69"/><path class="cls-2" d="M29.15,32.69V11.78A3.69,3.69,0,0,1,32.84,8.1h0a3.69,3.69,0,0,1,3.69,3.68V32.69"/><path class="cls-2" d="M44,35.87l3.27-8.1A3.72,3.72,0,0,1,52,25.49v0a3.69,3.69,0,0,1,2.27,4.69l-1.94,5.59L47,49.66a16.82,16.82,0,0,1-32.56-6v-21a3.69,3.69,0,0,1,7.38,0V34.06"/><path class="cls-2" d="M36.53,32.69V15.86a3.69,3.69,0,0,1,7.38,0V35.92"/></g></g></svg>