<svg xmlns="http://www.w3.org/2000/svg" viewBox="0 0 67.8 46.39"><defs><style>.cls-1,.cls-2,.cls-3,.cls-4,.cls-6,.cls-7{fill:none;}.cls-1{stroke:#333;}.cls-1,.cls-3,.cls-4,.cls-5,.cls-6,.cls-7{stroke-linecap:round;}.cls-1,.cls-2,.cls-3,.cls-4,.cls-5,.cls-6,.cls-7{stroke-linejoin:round;}.cls-1,.cls-2,.cls-6{stroke-width:0.75px;}.cls-2,.cls-3,.cls-4,.cls-5,.cls-6,.cls-7{stroke:#0c2337;}.cls-3{stroke-width:1.15px;}.cls-4{stroke-width:1.25px;}.cls-5{fill:#fff;stroke-width:0.5px;}</style></defs><g id="Layer_2" data-name="Layer 2"><g id="Layer_8" data-name="Layer 8"><path class="cls-1" d="M55.42.38h3.82c2.23,0,4,2.89,4,6.43V39.36c0,3.53-1.82,6.43-4,6.43H55.71"/><path class="cls-2" d="M12.57,46H8.75c-2.23,0-4-2.9-4-6.43V7C4.7,3.5,6.52.61,8.75.61h3.53"/><rect class="cls-3" x="12.25" y="5.01" width="42.49" height="29.38" rx="1.71"/><line class="cls-3" x1="12.25" y1="9.21" x2="54.74" y2="9.21"/><line class="cls-3" x1="14.9" y1="7.11" x2="17.29" y2="7.11"/><line class="cls-3" x1="18.99" y1="7.11" x2="21.37" y2="7.11"/><path class="cls-4" d="M28.15,34.32a7.53,7.53,0,1,1,11.84,0"/><path class="cls-4" d="M44.92,34.34a10.13,10.13,0,0,0,.63-1.83l3.59-.71V27.49l-3.61-.72a11.2,11.2,0,0,0-1.32-3.21l2-3-3-3.05-3.06,2a11.91,11.91,0,0,0-3.2-1.34l-.72-3.59H31.91l-.72,3.6A11.93,11.93,0,0,0,28,19.49l-3.05-2-3.05,3.05,2,3a11.64,11.64,0,0,0-1.33,3.21l-3.6.72V31.8l3.61.72a11.5,11.5,0,0,0,.54,1.66"/><circle class="cls-5" cx="4.33" cy="10.57" r="4.01"/><line class="cls-6" x1="2.31" y1="8.53" x2="6.37" y2="12.59"/><line class="cls-6" x1="6.37" y1="8.53" x2="2.31" y2="12.59"/><path class="cls-3" d="M55.56,34.69H38l-2,2H31.11l-2-2H10.57v1a3.91,3.91,0,0,0,3.91,3.92H51.65a3.91,3.91,0,0,0,3.91-3.92Z"/><path class="cls-5" d="M67.23,7.92a4,4,0,0,1,.32,1.59,4.07,4.07,0,1,1-1.41-3.09"/><polyline class="cls-7" points="61.57 9.58 63.27 11.28 67.24 6.18"/><circle class="cls-5" cx="63.48" cy="21.89" r="4.01"/><line class="cls-6" x1="61.46" y1="19.85" x2="65.52" y2="23.91"/><line class="cls-6" x1="65.52" y1="19.85" x2="61.46" y2="23.91"/><circle class="cls-5" cx="4.33" cy="35.13" r="4.01"/><line class="cls-6" x1="2.31" y1="33.09" x2="6.37" y2="37.15"/><line class="cls-6" x1="6.37" y1="33.09" x2="2.31" y2="37.15"/><path class="cls-5" d="M67.23,32.69a4,4,0,0,1,.32,1.59,4.07,4.07,0,1,1-1.41-3.09"/><polyline class="cls-6" points="61.57 34.35 63.27 36.05 67.24 30.95"/><path class="cls-5" d="M8.08,21.26a4.08,4.08,0,0,1-3.75,5.66,4.08,4.08,0,1,1,0-8.15,4.12,4.12,0,0,1,2.66,1"/><polyline class="cls-6" points="2.42 22.92 4.12 24.62 8.09 19.52"/></g></g></svg>