<svg xmlns="http://www.w3.org/2000/svg" viewBox="0 0 57.01 64.93"><defs><style>.cls-1,.cls-2,.cls-3{fill:none;stroke:#177fad;stroke-linecap:round;stroke-linejoin:round;}.cls-1{stroke-width:1.73px;}.cls-3{stroke-width:1.5px;}</style></defs><g id="Layer_2" data-name="Layer 2"><g id="Layer_7" data-name="Layer 7"><polyline class="cls-1" points="45.5 11.55 48.96 15.01 55.01 7.22"/><path class="cls-2" d="M50.82,16.36v.92a2.14,2.14,0,0,1-2.13,2.13H41.05a2.14,2.14,0,0,1-2.13-2.13V8.53A2.14,2.14,0,0,1,41.05,6.4h7.64a2.14,2.14,0,0,1,2.13,2.13"/><circle class="cls-3" cx="17.07" cy="17.07" r="16.32"/><path class="cls-3" d="M21.8,61.63a6.26,6.26,0,0,1-4.66,2.55A6.32,6.32,0,0,1,12,61.63V42.1H21.8Z"/><line class="cls-3" x1="14.44" y1="33.68" x2="14.44" y2="41.05"/><line class="cls-3" x1="19.54" y1="33.61" x2="19.54" y2="40.97"/><path class="cls-2" d="M51.72,35.74v.92a2.14,2.14,0,0,1-2.13,2.13H42a2.14,2.14,0,0,1-2.13-2.13V27.91A2.14,2.14,0,0,1,42,25.78h7.64a2.14,2.14,0,0,1,2.13,2.13"/><path class="cls-2" d="M51.72,55.57v.92a2.14,2.14,0,0,1-2.13,2.13H42a2.14,2.14,0,0,1-2.13-2.13V47.74A2.14,2.14,0,0,1,42,45.61h7.64a2.14,2.14,0,0,1,2.13,2.13"/><polyline class="cls-1" points="46.64 30.66 50.09 34.12 56.15 26.34"/><polyline class="cls-1" points="46.19 50.94 49.64 54.4 55.7 46.62"/><line class="cls-1" x1="9.93" y1="12.2" x2="22.55" y2="12.2"/><line class="cls-1" x1="7.68" y1="18.51" x2="27.05" y2="18.51"/><line class="cls-1" x1="13.08" y1="23.92" x2="22.55" y2="23.92"/></g></g></svg>