<svg xmlns="http://www.w3.org/2000/svg" viewBox="0 0 63.79 67.86"><defs><style>.cls-1{fill:none;stroke:#335fab;stroke-linecap:round;stroke-linejoin:round;stroke-width:1.77px;}.cls-2{fill:#335fab;}.cls-2,.cls-3{stroke:#fff;}.cls-3{fill:#231f20;stroke-width:1.48px;}</style></defs><g id="Layer_2" data-name="Layer 2"><g id="Layer_8" data-name="Layer 8"><path class="cls-1" d="M.88,62.34A4.68,4.68,0,0,0,5.58,67H47.49"/><polyline class="cls-1" points="38.9 5.49 10.12 5.49 10.12 16.77 10.12 31.64 10.12 62.04 51.97 62.04 51.97 31.64 51.97 18.41"/><polygon class="cls-1" points="42.94 14.42 50.18 14.42 42.94 7.27 42.94 14.42"/><line class="cls-1" x1="14.9" y1="17.06" x2="34.48" y2="17.06"/><line class="cls-1" x1="16.69" y1="43.42" x2="36.85" y2="43.42"/><line class="cls-1" x1="15.69" y1="49.02" x2="35.85" y2="49.02"/><line class="cls-1" x1="14.85" y1="30.98" x2="46.41" y2="30.98"/><line class="cls-1" x1="14.85" y1="37.25" x2="46.41" y2="37.25"/><path class="cls-1" d="M10.18,5.16a4.64,4.64,0,0,0-9.25,0h0V61.81h0a4.64,4.64,0,0,1,9.25,0h0V5.16Z"/><line class="cls-1" x1="14.5" y1="23.11" x2="46.06" y2="23.11"/><circle class="cls-2" cx="49.58" cy="53.24" r="13.71"/><path class="cls-3" d="M50.65,48.56v4.19h4v1.07h-4V58H49.51V53.82h-4V52.75h4V48.56Z"/></g></g></svg>