<svg xmlns="http://www.w3.org/2000/svg" viewBox="0 0 69.95 70.26"><defs><style>.cls-1,.cls-2,.cls-3,.cls-4{fill:none;stroke:#0c2337;}.cls-1{stroke-width:1.78px;}.cls-2{stroke-width:1.9px;stroke-dasharray:1.9;}.cls-3{stroke-linecap:round;stroke-linejoin:round;stroke-width:3px;}.cls-4{stroke-miterlimit:10;stroke-width:2px;}</style></defs><g id="Layer_2" data-name="Layer 2"><g id="Layer_8" data-name="Layer 8"><path class="cls-1" d="M34.94,11.73a25,25,0,0,0-25,25,24.33,24.33,0,0,0,6.17,16L5.4,67.25,20.94,57a25.49,25.49,0,0,0,14.48,4.32,25,25,0,0,0,25-25A25,25,0,0,0,34.94,11.73Z"/><path class="cls-2" d="M33.4,14.89A23.23,23.23,0,0,1,56.64,35.26"/><polyline class="cls-3" points="24.91 39.63 32.4 47.12 45.5 30.27"/><path class="cls-4" d="M50.34,64.85h0a6.73,6.73,0,0,0-10.19,3.23h0A1.78,1.78,0,0,1,37,68.4h0A6.74,6.74,0,0,0,26.31,67.2h0a1.78,1.78,0,0,1-3-1v0A6.74,6.74,0,0,0,14,60.77h0a1.78,1.78,0,0,1-2.37-2.17v0A6.73,6.73,0,0,0,5.44,49.9h0A1.79,1.79,0,0,1,4.14,47l0,0A6.74,6.74,0,0,0,2,36.47H2a1.78,1.78,0,0,1,0-3.21l0,0A6.75,6.75,0,0,0,4.34,22.81h0a1.78,1.78,0,0,1,1.32-2.92h0A6.74,6.74,0,0,0,12,11.28v0a1.78,1.78,0,0,1,2.4-2.13h0a6.74,6.74,0,0,0,9.28-5.26v0a1.78,1.78,0,0,1,3.06-1l0,0a6.75,6.75,0,0,0,10.62-1l0,0a1.78,1.78,0,0,1,3.19.37v0A6.74,6.74,0,0,0,50.75,5.6l0,0a1.77,1.77,0,0,1,2.76,1.63h0a6.74,6.74,0,0,0,7.87,7.21h0A1.78,1.78,0,0,1,63.32,17h0a6.73,6.73,0,0,0,4.25,9.79h0A1.78,1.78,0,0,1,68.25,30h0a6.73,6.73,0,0,0-.1,10.68l0,0a1.78,1.78,0,0,1-.69,3.14h0A6.74,6.74,0,0,0,63,53.56v0a1.78,1.78,0,0,1-1.91,2.59h0a6.74,6.74,0,0,0-8,7.09v0A1.78,1.78,0,0,1,50.34,64.85Z"/></g></g></svg>