<svg xmlns="http://www.w3.org/2000/svg" viewBox="0 0 65.41 61.89"><defs><style>.cls-1{fill:none;stroke:#177fad;stroke-linecap:round;stroke-linejoin:round;stroke-width:1.5px;}</style></defs><g id="Layer_2" data-name="Layer 2"><g id="Layer_5" data-name="Layer 5"><path class="cls-1" d="M41.19,10.45c-3.73-1.24-7.22-.92-9.36,1.22l-3.77,3.77c-3.75,3.76-3.3,13.12,2.75,19.17s14,7.91,17.76,4.15l5.18-5.18c2.1-2.1,2.44-5.5,1.29-9.14"/><path class="cls-1" d="M40.14,32.75a19.94,19.94,0,0,0,3,1.55c4.21,1.78,8.28,1.66,10.66-.72"/><path class="cls-1" d="M31.83,11.67c-3.75,3.75-1.89,11.7,4.17,17.75"/><path class="cls-1" d="M63.57,13.79c2.08-2.08,1.09-6.45-2.21-9.75s-7.67-4.28-9.75-2.2l-.86.86C48.67,4.79,49.66,9.15,53,12.45s7.67,4.29,9.75,2.2Z"/><path class="cls-1" d="M50.24,8.23,40.38,18.1c-1.42,1.41-1,4.12.9,6s4.62,2.32,6,.91l9.87-9.87"/><polyline class="cls-1" points="10.62 44.23 16.25 49.87 26.12 37.18"/><path class="cls-1" d="M34.41,41.86a16.91,16.91,0,1,1-11.6-13.74"/></g></g></svg>