<svg xmlns="http://www.w3.org/2000/svg" viewBox="0 0 65.89 63.09"><defs><style>.cls-1{fill:none;stroke:#335fab;stroke-linecap:round;stroke-linejoin:round;stroke-width:1.5px;}</style></defs><g id="Layer_2" data-name="Layer 2"><g id="Layer_8" data-name="Layer 8"><path class="cls-1" d="M5,55.34v-35a2.8,2.8,0,0,1,2.8-2.8h9.8"/><line class="cls-1" x1="60.94" y1="38.55" x2="60.94" y2="55.34"/><path class="cls-1" d="M65.14,55.34H40l-2.8,2.8h-7l-2.8-2.8H.75v1.4a5.6,5.6,0,0,0,5.6,5.6H59.54a5.59,5.59,0,0,0,5.6-5.6Z"/><path class="cls-1" d="M20.35,5a4.2,4.2,0,0,1,4.2-4.2H60.94A4.2,4.2,0,0,1,65.14,5v26.6a4.2,4.2,0,0,1-4.2,4.2H44.15l-7.41,8.81a1.4,1.4,0,0,1-2.39-1V35.75h-9.8a4.2,4.2,0,0,1-4.2-4.2Z"/><polyline class="cls-1" points="51.14 18.95 51.14 27.35 34.35 27.35 34.35 10.55 46.95 10.55"/><polyline class="cls-1" points="38.55 18.95 42.74 23.15 52.54 10.55"/></g></g></svg>