<svg xmlns="http://www.w3.org/2000/svg" viewBox="0 0 64.8 64.8"><defs><style>.cls-1{fill:#0d2f4f;}.cls-2,.cls-3{fill:none;stroke:#fff;stroke-width:1.76px;}.cls-3{stroke-miterlimit:10;}</style></defs><g id="Layer_2" data-name="Layer 2"><g id="Layer_2-2" data-name="Layer 2"><circle class="cls-1" cx="32.4" cy="32.4" r="32.4"/><path class="cls-2" d="M2.82,28.55H2.51c1.77.42,4,2.81,6.67,7.09a13.8,13.8,0,0,0,1.35,2,17.74,17.74,0,0,0,9.39,6.67A40.18,40.18,0,0,0,31.49,46,39.45,39.45,0,0,0,43,44.29c4.38-1.25,7.93-4.17,10.74-8.65,2.71-4.28,4.9-6.67,6.67-7.09h-.31a42.4,42.4,0,0,1-13.34,3.54,47.79,47.79,0,0,0-6.88.52c-.94.21-2.19.53-4,.94a19.89,19.89,0,0,1-4.38.63,16.06,16.06,0,0,1-4.07-.63c-1.56-.41-2.71-.73-3.65-.94a47.64,47.64,0,0,0-6.88-.52c-3.65-.21-8.23-1.35-14-3.54Z"/><path class="cls-3" d="M2.61,28.44a.36.36,0,0,1,.31.11c5.74,2.19,10.32,3.33,14,3.54a47.64,47.64,0,0,1,6.88.52c.94.21,2.09.53,3.65.94a16.06,16.06,0,0,0,4.07.63,19.89,19.89,0,0,0,4.38-.63c1.77-.41,3-.73,4-.94a47.79,47.79,0,0,1,6.88-.52,42.4,42.4,0,0,0,13.34-3.54,53.59,53.59,0,0,1-13.34,3,47.79,47.79,0,0,0-6.88.52c-.94.21-2.19.52-4,.94a19.89,19.89,0,0,1-4.38.63A16.06,16.06,0,0,1,27.42,33c-1.56-.42-2.71-.73-3.65-.94a47.64,47.64,0,0,0-6.88-.52A62.52,62.52,0,0,1,3,28.55a.61.61,0,0,0-.42-.11Z"/><path class="cls-2" d="M3.65,28.44a1.22,1.22,0,0,1-.62.11,62.52,62.52,0,0,0,13.86,3,47.64,47.64,0,0,1,6.88.52c.94.21,2.09.52,3.65.94a16.06,16.06,0,0,0,4.07.63A19.89,19.89,0,0,0,35.87,33c1.77-.42,3-.73,4-.94a47.79,47.79,0,0,1,6.88-.52,53.59,53.59,0,0,0,13.34-3H60c-1.77-.11-4.59-1.15-8.66-3.13-4.58-2.29-7.81-3.54-9.59-3.65A13.52,13.52,0,0,0,36,22.92a19.18,19.18,0,0,1-4.59,1.25h-.2a31.56,31.56,0,0,1-4.28-1.25,13.52,13.52,0,0,0-5.73-1.15c-1.77.11-5,1.36-9.59,3.65a31.62,31.62,0,0,1-7.93,3Z"/></g></g></svg>