<svg xmlns="http://www.w3.org/2000/svg" viewBox="0 0 64.8 64.8"><defs><style>.cls-1{fill:#0d2f4f;}.cls-2{fill:none;stroke:#fff;stroke-linecap:round;stroke-linejoin:round;stroke-width:1.11px;}</style></defs><g id="Layer_2" data-name="Layer 2"><g id="Layer_2-2" data-name="Layer 2"><circle class="cls-1" cx="32.4" cy="32.4" r="32.4"/><path class="cls-2" d="M38,37.11A22.55,22.55,0,0,1,13.7,28h0"/><path class="cls-2" d="M53.37,28h0a1.92,1.92,0,0,1-1.23,1.79l-.79.29c-.83.67-1.65,1.28-2.46,1.84"/><path class="cls-2" d="M53.37,28h0a1.9,1.9,0,0,0-1.23-1.78l-.79-.3C28.49,7.71,13.7,28,13.7,28"/><circle class="cls-2" cx="32.52" cy="28.01" r="7.2"/><path class="cls-2" d="M36.54,27.31a5.36,5.36,0,0,1,.06.7,4.08,4.08,0,1,1-4.27-4.07"/><circle class="cls-2" cx="35.2" cy="24.51" r="2.8"/><path class="cls-2" d="M51.64,33.93a8.22,8.22,0,1,0,0,11.63A8.21,8.21,0,0,0,51.64,33.93Z"/><line class="cls-2" x1="40.02" y1="45.55" x2="51.64" y2="33.93"/></g></g></svg>