<svg xmlns="http://www.w3.org/2000/svg" viewBox="0 0 64.33 64.61"><defs><style>.cls-1{fill:none;stroke:#0c2337;stroke-linecap:round;stroke-linejoin:round;stroke-width:2px;}</style></defs><g id="Layer_2" data-name="Layer 2"><g id="Layer_8" data-name="Layer 8"><path class="cls-1" d="M46.26,59.57h0a6.18,6.18,0,0,0-9.35,3h0a1.64,1.64,0,0,1-2.94.29v0a6.18,6.18,0,0,0-9.74-1.09h0a1.64,1.64,0,0,1-2.8-.93v0a6.19,6.19,0,0,0-8.46-5h0a1.63,1.63,0,0,1-2.18-2v0a6.18,6.18,0,0,0-5.72-8h0a1.64,1.64,0,0,1-1.19-2.7l0,0a6.18,6.18,0,0,0-2-9.59h0a1.63,1.63,0,0,1,0-2.94l0,0A6.18,6.18,0,0,0,4.06,21h0a1.64,1.64,0,0,1,1.21-2.69h0a6.17,6.17,0,0,0,5.8-7.88v0a1.63,1.63,0,0,1,2.2-1.95h0a6.18,6.18,0,0,0,8.51-4.83v0a1.63,1.63,0,0,1,2.81-.89l0,0a6.18,6.18,0,0,0,9.74-1v0a1.64,1.64,0,0,1,2.93.34v0a6.18,6.18,0,0,0,9.28,3.1l0,0a1.63,1.63,0,0,1,2.54,1.49v0a6.18,6.18,0,0,0,7.21,6.61h0a1.64,1.64,0,0,1,1.71,2.4h0a6.18,6.18,0,0,0,3.9,9h0a1.63,1.63,0,0,1,.58,2.89h0a6.18,6.18,0,0,0-.09,9.8l0,0A1.63,1.63,0,0,1,62,40.29h0a6.19,6.19,0,0,0-4.07,8.92v0a1.63,1.63,0,0,1-1.75,2.37h0a6.18,6.18,0,0,0-7.34,6.5v0A1.64,1.64,0,0,1,46.26,59.57Z"/><circle class="cls-1" cx="32.17" cy="32.31" r="20.45"/><polyline class="cls-1" points="24.86 32.31 30.71 38.15 40.93 25"/></g></g></svg>